<svg width="42" height="42" viewBox="0 0 42 42" fill="none" xmlns="http://www.w3.org/2000/svg">
<path d="M21 22.2425L14.805 16.0475C14.4771 15.7216 14.0336 15.5386 13.5713 15.5386C13.109 15.5386 12.6654 15.7216 12.3375 16.0475C12.1735 16.2102 12.0433 16.4037 11.9545 16.617C11.8656 16.8302 11.8199 17.059 11.8199 17.29C11.8199 17.521 11.8656 17.7497 11.9545 17.963C12.0433 18.1763 12.1735 18.3698 12.3375 18.5325L19.7575 25.9525C19.9202 26.1165 20.1138 26.2467 20.327 26.3355C20.5403 26.4244 20.769 26.4701 21 26.4701C21.2311 26.4701 21.4598 26.4244 21.673 26.3355C21.8863 26.2467 22.0798 26.1165 22.2425 25.9525L29.75 18.5325C29.9122 18.369 30.0405 18.175 30.1276 17.9618C30.2147 17.7486 30.2589 17.5203 30.2575 17.29C30.2589 17.0597 30.2147 16.8314 30.1276 16.6182C30.0405 16.4049 29.9122 16.211 29.75 16.0475C29.4221 15.7216 28.9786 15.5386 28.5163 15.5386C28.054 15.5386 27.6104 15.7216 27.2825 16.0475L21 22.2425Z" fill="#35E6E9"/>
</svg>
